<?xml version="1.0" standalone="no"?><!DOCTYPE svg PUBLIC "-//W3C//DTD SVG 1.1//EN" "http://www.w3.org/Graphics/SVG/1.1/DTD/svg11.dtd"><svg t="1558513717898" class="icon" style="" viewBox="0 0 1024 1024" version="1.1" xmlns="http://www.w3.org/2000/svg" p-id="1182" xmlns:xlink="http://www.w3.org/1999/xlink" width="48" height="48"><defs><style type="text/css"></style></defs><path d="M877.136118 631.746268c12.351306-37.682227 19.035542-77.933977 19.035542-119.748315 0-212.168214-171.999352-384.16859-384.173706-384.16859-212.169237 0-384.16859 172.001399-384.16859 384.16859 0 212.177424 171.999352 384.173706 384.16859 384.173706 136.076188 0 255.627005-70.747297 323.877435-177.466877-56.404638-26.875091-163.524331-75.380828-232.850256-106.08206-47.430242 58.437947-115.491361 107.032712-210.966852 107.032712 0 0-103.2035-0.674359-135.871527-66.048275-5.649674-11.304464-10.150174-23.399943-10.150174-23.399943s-42.649356-130.551358 136.905066-130.551358c47.886637 0 118.421087 14.364149 190.106756 33.111119 15.440667-30.109762 26.708292-61.229526 32.843012-89.720418L354.391403 443.046558l0-29.550013 128.056538 0 0-39.399335L314.988997 374.09721l0-29.554106 167.458943 0 0-49.255821c0-9.404184 0.648776-29.670763 23.276123-29.670763l65.376986 0.125867 0 78.800717 157.610644 0 0 29.554106L571.102073 374.09721l0 39.399335 128.056538 0c0 0-14.833847 67.412342-55.344492 138.972145C723.651444 575.886029 840.341097 618.556874 877.136118 631.746268L877.136118 631.746268zM292.362674 563.078329c-2.352581 2.465145-9.531074 17.206894-10.117428 21.455661-4.65809 33.763988-12.945847 98.451266 100.6964 98.451266 62.134129 0 117.061113-42.164309 157.472498-97.238648-68.052932-28.175713-128.60503-49.313126-157.472498-49.426713C336.01794 536.140817 312.143183 542.390147 292.362674 563.078329L292.362674 563.078329zM292.362674 563.078329" p-id="1183" fill="#1296db"></path></svg>